<?xml version="1.0" standalone="no"?>
<svg xmlns:xlink="http://www.w3.org/1999/xlink" id="wave" style="transform:rotate(180deg); transition: 0.3s" viewBox="0 0 1440 170" version="1.1" xmlns="http://www.w3.org/2000/svg"><defs><linearGradient id="sw-gradient-0" x1="0" x2="0" y1="1" y2="0"><stop stop-color="rgba(255, 249, 234, 1)" offset="0%"/><stop stop-color="rgba(240.414, 240.414, 240.414, 1)" offset="100%"/></linearGradient></defs><path style="transform:translate(0, 0px); opacity:1" fill="url(#sw-gradient-0)" d="M0,85L21.8,73.7C43.6,62,87,40,131,34C174.5,28,218,40,262,48.2C305.5,57,349,62,393,53.8C436.4,45,480,23,524,11.3C567.3,0,611,0,655,8.5C698.2,17,742,34,785,45.3C829.1,57,873,62,916,62.3C960,62,1004,57,1047,51C1090.9,45,1135,40,1178,51C1221.8,62,1265,91,1309,99.2C1352.7,108,1396,96,1440,79.3C1483.6,62,1527,40,1571,31.2C1614.5,23,1658,28,1702,28.3C1745.5,28,1789,23,1833,42.5C1876.4,62,1920,108,1964,110.5C2007.3,113,2051,74,2095,70.8C2138.2,68,2182,102,2225,121.8C2269.1,142,2313,147,2356,124.7C2400,102,2444,51,2487,45.3C2530.9,40,2575,79,2618,87.8C2661.8,96,2705,74,2749,68C2792.7,62,2836,74,2880,68C2923.6,62,2967,40,3011,51C3054.5,62,3098,108,3120,130.3L3141.8,153L3141.8,170L3120,170C3098.2,170,3055,170,3011,170C2967.3,170,2924,170,2880,170C2836.4,170,2793,170,2749,170C2705.5,170,2662,170,2618,170C2574.5,170,2531,170,2487,170C2443.6,170,2400,170,2356,170C2312.7,170,2269,170,2225,170C2181.8,170,2138,170,2095,170C2050.9,170,2007,170,1964,170C1920,170,1876,170,1833,170C1789.1,170,1745,170,1702,170C1658.2,170,1615,170,1571,170C1527.3,170,1484,170,1440,170C1396.4,170,1353,170,1309,170C1265.5,170,1222,170,1178,170C1134.5,170,1091,170,1047,170C1003.6,170,960,170,916,170C872.7,170,829,170,785,170C741.8,170,698,170,655,170C610.9,170,567,170,524,170C480,170,436,170,393,170C349.1,170,305,170,262,170C218.2,170,175,170,131,170C87.3,170,44,170,22,170L0,170Z"/></svg>